<svg width="352" height="215" viewBox="0 0 352 215" fill="none" xmlns="http://www.w3.org/2000/svg">
<ellipse cx="215.5" cy="205" rx="54.5" ry="10" fill="#8EC442"/>
<ellipse cx="54.5" cy="191" rx="54.5" ry="10" fill="#8EC442"/>
<ellipse cx="159" cy="142.5" rx="90" ry="16.5" fill="#8EC442"/>
<ellipse cx="297.5" cy="146" rx="54.5" ry="10" fill="#8EC442"/>
<g clip-path="url(#clip0_735_2198)">
<g clip-path="url(#clip1_735_2198)">
<ellipse cx="127.677" cy="20.6165" rx="12.6604" ry="13.6432" transform="rotate(-28.6896 127.677 20.6165)" fill="#5BB42B"/>
<ellipse cx="12.6604" cy="13.6432" rx="12.6604" ry="13.6432" transform="matrix(-0.877234 -0.480064 -0.480064 0.877234 200.336 14.3738)" fill="#5BB42B"/>
<path d="M189.614 75.2052C181.764 77.5273 170.353 70.039 165.629 66.0046C165.441 65.3278 165.251 63.6315 165.993 62.2599C166.92 60.5454 186.511 61.1258 190.981 62.0729C195.45 63.0201 199.426 72.3026 189.614 75.2052Z" fill="#5C9A15"/>
<path d="M172.576 109.736C174.848 108.807 177.06 96.4312 176.612 90.27L154.792 93.7525C154.343 98.7529 154.314 108.95 155.39 109.736C156.735 110.718 169.737 110.897 172.576 109.736Z" fill="#5C9A15"/>
<path d="M174.282 96.0278C181.073 91.512 171.893 63.3415 165.26 59.7933C158.627 56.2451 147.838 56.7827 143.1 59.7933C138.362 62.8039 126.654 91.4044 133.445 96.0278C140.236 100.651 167.491 100.544 174.282 96.0278Z" fill="#5BB42B"/>
<path d="M135.471 109.736C133.199 108.807 130.987 96.4312 131.436 90.27L153.256 93.7525C153.704 98.7529 153.734 108.95 152.658 109.736C151.313 110.718 138.311 110.897 135.471 109.736Z" fill="#5BB42B"/>
<path d="M119.198 74.6651C126.93 77.353 138.68 70.4083 143.588 66.6001C143.808 65.9329 144.077 64.2472 143.401 62.8424C142.555 61.0863 122.958 60.7468 118.449 61.4832C113.94 62.2196 109.533 71.3053 119.198 74.6651Z" fill="#5BB42B"/>
<path d="M171.288 85.0137C171.288 94.615 164.056 96.921 155.135 96.921C146.214 96.921 138.982 94.615 138.982 85.0137C138.982 72.392 146.214 65.2477 155.135 65.2477C164.056 65.2477 171.288 72.392 171.288 85.0137Z" fill="#A1DC3C"/>
<path d="M155.627 91.8537C155.692 91.8541 155.757 91.8417 155.817 91.8172C155.877 91.7927 155.932 91.7567 155.978 91.7111L158.179 89.4981C158.26 89.404 158.302 89.283 158.297 89.1592C158.292 89.0354 158.241 88.918 158.153 88.8304C158.065 88.7429 157.946 88.6915 157.822 88.6868C157.698 88.682 157.576 88.7241 157.481 88.8047L155.276 90.9931C155.23 91.0388 155.193 91.0932 155.168 91.1531C155.143 91.2131 155.13 91.2773 155.13 91.3423C155.13 91.4072 155.143 91.4715 155.168 91.5314C155.193 91.5913 155.23 91.6457 155.276 91.6914C155.321 91.7406 155.375 91.7803 155.435 91.8082C155.496 91.8361 155.561 91.8516 155.627 91.8537Z" fill="#5BB42B"/>
<path d="M157.804 91.8537C157.869 91.8541 157.933 91.8417 157.992 91.8173C158.052 91.7929 158.106 91.7569 158.152 91.7114C158.198 91.6658 158.235 91.6116 158.26 91.5518C158.285 91.492 158.297 91.4279 158.297 91.3631C158.297 91.2983 158.285 91.2342 158.26 91.1744C158.235 91.1146 158.198 91.0604 158.152 91.0148L155.969 88.8315C155.924 88.7855 155.869 88.749 155.81 88.7241C155.75 88.6992 155.686 88.6864 155.621 88.6864C155.556 88.6864 155.492 88.6992 155.432 88.7241C155.373 88.749 155.318 88.7855 155.273 88.8315C155.181 88.9235 155.13 89.0478 155.13 89.1774C155.13 89.307 155.181 89.4314 155.273 89.5233L157.461 91.7114C157.552 91.8021 157.675 91.8532 157.804 91.8537Z" fill="#5BB42B"/>
<path d="M196.171 42.5283C196.171 59.2338 177.758 64.7734 155.38 64.7734C133.001 64.7734 114.453 59.2338 114.453 42.5283C114.453 18.5304 133.001 8.23657 155.38 8.23657C177.758 8.23657 196.171 16.63 196.171 42.5283Z" fill="#5BB42B"/>
<path d="M129.974 20.5887V25.6564" stroke="black" stroke-width="4.751" stroke-linecap="round"/>
<path d="M183.819 20.272V25.3397" stroke="black" stroke-width="4.751" stroke-linecap="round"/>
<path d="M123.006 36.7415H128.391" stroke="#A1DC3C" stroke-width="6.33467" stroke-linecap="round"/>
<path d="M181.601 36.7415H186.985" stroke="#A1DC3C" stroke-width="6.33467" stroke-linecap="round"/>
<path d="M162.915 31.6925C162.915 27.8869 162.915 25.9737 155.788 25.9737C148.662 25.9737 148.662 27.5469 148.662 31.6925C148.662 38.4846 151.852 42.4438 155.788 42.4438C159.724 42.4438 162.915 38.0095 162.915 31.6925Z" fill="#FFD2D2"/>
<path fill-rule="evenodd" clip-rule="evenodd" d="M148.674 32.3944C148.886 38.7573 151.99 42.4449 155.789 42.4449C158.546 42.4449 160.937 40.2692 162.122 36.7947C160.744 35.1832 158.703 33.7856 156.239 32.9217C153.554 31.9802 150.865 31.8479 148.674 32.3944Z" fill="#FF2D2D"/>
<path fill-rule="evenodd" clip-rule="evenodd" d="M196.868 42.1795C196.51 41.6989 196.385 41.0571 196.588 40.4451C196.918 39.4488 197.993 38.9088 198.989 39.239C199.986 39.5692 200.526 40.6445 200.196 41.6408C199.998 42.2367 199.534 42.6694 198.98 42.8502C198.974 42.8693 198.969 42.8883 198.962 42.9073L189.395 71.7748C189.203 72.356 188.576 72.671 187.994 72.4784C187.413 72.2857 187.098 71.6585 187.291 71.0773L196.858 42.2098C196.861 42.1996 196.865 42.1895 196.868 42.1795Z" fill="#AC6647"/>
<path fill-rule="evenodd" clip-rule="evenodd" d="M110.598 42.1795C110.956 41.6989 111.082 41.0571 110.879 40.4451C110.549 39.4488 109.474 38.9088 108.477 39.239C107.481 39.5692 106.941 40.6445 107.271 41.6408C107.469 42.2367 107.933 42.6694 108.487 42.8502C108.492 42.8693 108.498 42.8883 108.504 42.9073L118.071 71.7748C118.264 72.356 118.891 72.671 119.472 72.4783C120.053 72.2857 120.368 71.6585 120.176 71.0773L110.609 42.2098C110.606 42.1996 110.602 42.1895 110.598 42.1795Z" fill="#AC6647"/>
</g>
<rect x="92.6676" y="71.9568" width="37.3746" height="45.1073" fill="#377246"/>
<path d="M92.6676 117.064L130.042 117.064" stroke="#E7EAEE" stroke-width="2.14797" stroke-linecap="round"/>
<path d="M92.6676 71.9568L130.042 71.9568" stroke="#E7EAEE" stroke-width="2.14797" stroke-linecap="round"/>
<path d="M127.893 72.3865V75.6084" stroke="#A1DC3C" stroke-width="2.14797" stroke-linecap="round"/>
<path d="M127.893 112.769V115.991" stroke="#A1DC3C" stroke-width="2.14797" stroke-linecap="round"/>
<rect x="118.873" y="56.0629" width="29.6419" height="22.3389" fill="#377246"/>
<path d="M146.368 56.0629V59.2848" stroke="#E7EAEE" stroke-width="2.14797" stroke-linecap="round"/>
<rect x="170.413" y="71.5283" width="31.3603" height="14.1766" fill="#377246"/>
<path d="M170.423 71.5283L201.784 71.5283" stroke="#E7EAEE" stroke-width="2.14797" stroke-linecap="round"/>
<rect x="161.831" y="57.3508" width="29.2123" height="19.7613" fill="#377246"/>
<path d="M145.506 67.2322H152.38V80.12" stroke="#E7EAEE" stroke-width="2.57756" stroke-linecap="round" stroke-linejoin="round"/>
<path d="M165.269 67.2322H158.395V80.12" stroke="#E7EAEE" stroke-width="2.57756" stroke-linecap="round" stroke-linejoin="round"/>
<path d="M118.873 56.0629L148.514 56.0629" stroke="#E7EAEE" stroke-width="2.14797" stroke-linecap="round"/>
<path d="M161.831 57.3508L191.043 57.3508" stroke="#E7EAEE" stroke-width="2.14797" stroke-linecap="round"/>
<path d="M161.831 77.1136L191.043 77.1136" stroke="#E7EAEE" stroke-width="2.14797" stroke-linecap="round"/>
<path d="M118.873 78.4016L148.514 78.4016" stroke="#E7EAEE" stroke-width="2.14797" stroke-linecap="round"/>
<path d="M89.8735 88.2817V115.991C89.8735 118.067 89.315 122.52 87.0811 123.723C84.2888 125.227 82.3556 128.449 82.3556 132.315" stroke="#E7EAEE" stroke-width="2.14797" stroke-linecap="round"/>
<path d="M87.5133 96.8735C87.5133 96.1617 88.0903 95.5847 88.8021 95.5847H92.6684V102.888H88.8021C88.0903 102.888 87.5133 102.311 87.5133 101.599V96.8735Z" fill="#E7EAEE"/>
<rect x="115.006" y="95.7989" width="5.15512" height="7.30309" rx="1.28878" fill="#E7EAEE"/>
<rect x="80.2116" y="129.952" width="4.29593" height="4.72553" rx="0.859187" fill="#377246"/>
<path d="M111.137 72.3865V75.6084" stroke="#E7EAEE" stroke-width="2.14797" stroke-linecap="round"/>
<path d="M133.479 56.0629V59.2848" stroke="#E7EAEE" stroke-width="2.14797" stroke-linecap="round"/>
<path d="M176.437 57.7818V61.0037" stroke="#E7EAEE" stroke-width="2.14797" stroke-linecap="round"/>
<path d="M121.02 56.0629V59.2848" stroke="#E7EAEE" stroke-width="2.14797" stroke-linecap="round"/>
<path d="M163.978 57.7818V61.0037" stroke="#E7EAEE" stroke-width="2.14797" stroke-linecap="round"/>
<path d="M189.324 57.7818V61.0037" stroke="#E7EAEE" stroke-width="2.14797" stroke-linecap="round"/>
<path d="M133.479 74.1055V77.3274" stroke="#E7EAEE" stroke-width="2.14797" stroke-linecap="round"/>
<path d="M176.437 72.8176V76.0395" stroke="#E7EAEE" stroke-width="2.14797" stroke-linecap="round"/>
<path d="M163.978 72.8176V76.0395" stroke="#E7EAEE" stroke-width="2.14797" stroke-linecap="round"/>
<path d="M186.317 82.2679V85.4899" stroke="#E7EAEE" stroke-width="2.14797" stroke-linecap="round"/>
<path d="M189.324 72.8176V76.0395" stroke="#E7EAEE" stroke-width="2.14797" stroke-linecap="round"/>
<path d="M121.02 74.1055V77.3274" stroke="#E7EAEE" stroke-width="2.14797" stroke-linecap="round"/>
<path d="M172.571 82.2679V85.4899" stroke="#E7EAEE" stroke-width="2.14797" stroke-linecap="round"/>
<path d="M146.368 74.1055V77.3274" stroke="#E7EAEE" stroke-width="2.14797" stroke-linecap="round"/>
<path d="M199.638 82.2679V85.4899" stroke="#E7EAEE" stroke-width="2.14797" stroke-linecap="round"/>
<path d="M199.638 71.9568V75.1787" stroke="#E7EAEE" stroke-width="2.14797" stroke-linecap="round"/>
<path d="M94.8176 72.3865V75.6084" stroke="#E7EAEE" stroke-width="2.14797" stroke-linecap="round"/>
<path d="M111.137 112.769V115.991" stroke="#E7EAEE" stroke-width="2.14797" stroke-linecap="round"/>
<path d="M94.8176 112.769V115.991" stroke="#E7EAEE" stroke-width="2.14797" stroke-linecap="round"/>
<path d="M186.19 85.9201V93.0084M186.19 111.91L176.31 123.295C176.095 123.581 175.622 124.24 175.451 124.584C175.279 124.927 175.236 126.015 175.236 126.517M186.19 111.91L196.071 123.295C196.286 123.581 196.758 124.24 196.93 124.584C197.102 124.927 197.145 126.015 197.145 126.517M186.19 111.91V93.0084M186.19 111.91V128.45M186.19 93.0084L196.501 85.9201M186.19 93.0084L175.88 85.9201" stroke="#E7EAEE" stroke-width="1.71837" stroke-linecap="round" stroke-linejoin="round"/>
<path d="M170.423 85.7045L201.784 85.7045" stroke="#E7EAEE" stroke-width="2.14797" stroke-linecap="round"/>
<path d="M117.582 88.4959V116.205C117.582 118.281 118.141 122.734 120.374 123.937C123.167 125.441 125.1 128.663 125.1 132.529" stroke="#E7EAEE" stroke-width="2.14797" stroke-linecap="round"/>
<rect x="122.739" y="130.168" width="4.29593" height="4.72553" rx="0.859187" fill="#377246"/>
<path d="M132.301 134.034L130.153 141.337" stroke="#E7EAEE" stroke-width="1.71837" stroke-linecap="round" stroke-linejoin="round"/>
<path d="M176.545 134.034L178.693 141.337" stroke="#E7EAEE" stroke-width="1.71837" stroke-linecap="round" stroke-linejoin="round"/>
<circle cx="154.53" cy="111.481" r="31.3603" fill="#377246" stroke="#E7EAEE" stroke-width="2.14797"/>
<path d="M146.883 111.512V106.143L135.624 117.406L138.284 120.123L146.883 111.512ZM172.538 108.156C171.704 103.961 168.551 100.815 168.189 100.443L160.45 92.5772L156.028 96.9977L155.713 97.3123V102.682L160.434 97.9626L164.836 102.435L165.508 103.117L165.555 103.164C165.555 103.164 165.849 103.453 166.253 103.935C167.492 105.358 168.372 107.058 168.818 108.891C169.448 112.037 169.763 115.744 166.253 120.243V125.791C166.583 125.503 166.777 125.298 166.867 125.225C170.014 122.142 171.898 119.027 172.638 115.697C173.149 113.206 173.117 110.634 172.543 108.156H172.538ZM149.097 124.732L148.982 124.674H148.924C148.581 124.495 148.255 124.286 147.948 124.05C147.66 123.846 147.308 123.573 146.899 123.222C146.259 122.697 145.461 121.984 144.491 121.035L142.314 118.812L139.627 121.497L141.794 123.704V123.736C145.147 127.008 146.867 127.931 147.502 128.198C149.512 129.188 151.691 129.791 153.924 129.976C154.95 130.056 155.981 130.035 157.003 129.913L157.25 129.887V126.038C154.464 126.479 151.61 126.021 149.102 124.732H149.097Z" fill="#E7EAEE"/>
<path d="M153.821 99.21V122.136H148.79V104.244L149.294 103.741L149.566 103.468L151.088 101.947L152.116 100.919L152.452 100.584L153.485 99.5509L153.821 99.21Z" fill="#E7EAEE"/>
<path d="M164.355 104.333V127.206L164.293 127.253C164.062 127.4 163.815 127.552 163.553 127.699C163.469 127.751 163.38 127.799 163.29 127.846C163.06 127.977 162.813 128.108 162.561 128.234C162.309 128.36 162.084 128.465 161.832 128.575L161.417 128.753L160.851 128.973L160.389 129.136C160.074 129.241 159.749 129.34 159.413 129.429L159.167 129.492V104.333H164.355Z" fill="#E7EAEE"/>
<path d="M159.164 110.379H153.818V115.571H159.164V110.379Z" fill="#E7EAEE"/>
<path d="M105.122 37.3763V112.985M105.122 112.985L95.8858 125.228M105.122 112.985V133.176M105.122 112.985L114.144 125.228M87.7235 138.546C87.7235 138.546 87.8222 136.806 88.1531 135.753C88.4009 134.965 89.2271 133.82 89.2271 133.82L95.8858 125.228M122.521 138.546C122.521 138.546 122.471 136.789 122.091 135.753C121.793 134.942 121.017 133.82 121.017 133.82L114.144 125.228M105.122 142.412V133.176M95.8858 125.228L105.122 133.176M105.122 133.176L114.144 125.228" stroke="#E7EAEE" stroke-width="2.14797" stroke-linecap="round"/>
<rect x="120.592" y="137.9" width="4.29593" height="4.72553" rx="0.859187" fill="#377246"/>
<rect x="85.7916" y="137.9" width="4.29593" height="4.72553" rx="0.859187" fill="#377246"/>
<rect x="102.976" y="141.337" width="4.29593" height="4.72553" rx="0.859187" fill="#377246"/>
<path d="M220.254 41.4568V102.889M220.254 102.889L211.017 115.132M220.254 102.889V123.08M220.254 102.889L229.275 115.132M202.855 128.449C202.855 128.449 202.954 126.71 203.285 125.657C203.532 124.869 204.359 123.724 204.359 123.724L211.017 115.132M237.652 128.449C237.652 128.449 237.603 126.693 237.223 125.657C236.925 124.846 236.149 123.724 236.149 123.724L229.275 115.132M220.254 132.316V123.08M211.017 115.132L220.254 123.08M220.254 123.08L229.275 115.132" stroke="#E7EAEE" stroke-width="2.14797" stroke-linecap="round"/>
<rect x="102.976" y="50.2633" width="4.29593" height="4.29593" rx="0.859187" fill="#377246"/>
<path d="M103.836 41.6724H106.413" stroke="#377246" stroke-width="1.71837" stroke-linecap="round"/>
<path d="M217.197 55.6327C216.219 56.2054 204.79 57.1362 204.79 58.2102C204.79 59.2842 211.233 60.3582 220.255 60.3582C229.276 60.3582 235.72 59.2842 235.72 58.2102C235.72 57.1362 224.291 56.3486 223.313 55.7759C222.334 55.2031 221.967 54.3439 220.255 54.3439C218.542 54.3439 218.176 55.0599 217.197 55.6327Z" fill="#C79622"/>
<path d="M99.8506 44.4638C98.1322 45.3229 78.0616 47.2561 78.0616 48.3301C78.0616 49.4041 94.611 50.2633 105.22 50.2633C115.829 50.2633 132.379 49.6189 132.379 48.5449C132.379 47.4709 112.309 45.5377 110.59 44.6785C108.872 43.8194 108.227 42.5306 105.22 42.5306C102.213 42.5306 101.569 43.6046 99.8506 44.4638Z" fill="#C79622"/>
<rect x="200.923" y="126.516" width="4.29593" height="4.72553" rx="0.859187" fill="#377246"/>
<rect x="195.364" y="125.542" width="3.43675" height="3.43675" rx="0.859187" fill="#377246"/>
<rect x="184.538" y="127.259" width="3.43675" height="3.43675" rx="0.859187" fill="#377246"/>
<rect x="128.687" y="138.498" width="4.29593" height="4.72553" rx="0.859187" transform="rotate(15 128.687 138.498)" fill="#377246"/>
<rect width="4.29593" height="4.72553" rx="0.859187" transform="matrix(-0.965926 0.258819 0.258819 0.965926 180.156 138.498)" fill="#377246"/>
<rect x="218.108" y="129.952" width="4.29593" height="4.72553" rx="0.859187" fill="#377246"/>
<rect x="218.108" y="60.3589" width="4.29593" height="2.57756" rx="0.859187" fill="#377246"/>
<rect x="235.723" y="126.516" width="4.29593" height="4.72553" rx="0.859187" fill="#377246"/>
<path d="M218.967 53.9141H221.545" stroke="#377246" stroke-width="1.71837" stroke-linecap="round"/>
<rect x="141.642" y="64.2253" width="6.01431" height="6.01431" rx="1.28878" fill="#E7EAEE"/>
<rect x="149.801" y="69.8093" width="5.15512" height="3.00715" rx="1.28878" fill="#E7EAEE"/>
<rect x="155.817" y="69.8107" width="5.15512" height="3.00715" rx="1.28878" fill="#E7EAEE"/>
<rect x="163.122" y="64.2253" width="6.01431" height="6.01431" rx="1.28878" fill="#E7EAEE"/>
</g>
<g clip-path="url(#clip2_735_2198)">
<path d="M84.3339 146.578C76.9972 144.22 72.7544 141.498 66.6504 142.655C66.1515 143.149 65.1444 144.527 65.107 146.086C65.0602 148.034 78.5187 154.73 83.0403 155.383C88.0216 156.102 91.5606 148.902 84.3339 146.578Z" fill="#E7EAEE"/>
<path d="M72.5555 190.061C74.8272 189.132 77.0391 176.756 76.5907 170.595L54.7709 174.078C54.3225 179.078 54.2927 189.275 55.3687 190.061C56.7138 191.043 69.716 191.222 72.5555 190.061Z" fill="#E7EAEE"/>
<path d="M74.2609 176.353C81.0519 171.837 71.8719 143.667 65.2388 140.119C58.6058 136.57 47.8173 137.108 43.0794 140.119C38.3414 143.129 26.6331 171.73 33.4241 176.353C40.2152 180.976 67.4699 180.869 74.2609 176.353Z" fill="white"/>
<path d="M35.4501 190.061C33.1784 189.132 30.9665 176.756 31.4149 170.595L53.2347 174.078C53.6831 179.078 53.713 189.275 52.6369 190.061C51.2919 191.043 38.2897 191.222 35.4501 190.061Z" fill="white"/>
<path d="M71.2646 166.766C71.2646 175.215 64.0325 177.245 55.1112 177.245C46.19 177.245 38.9578 175.215 38.9578 166.766C38.9578 155.659 46.19 149.372 55.1112 149.372C64.0325 149.372 71.2646 155.659 71.2646 166.766Z" fill="#E7EAEE"/>
<path d="M28.5414 76.8293C31.0753 85.0427 41.9249 101.123 44.2197 107.847H65.916C68.2108 101.123 78.224 85.0427 81.4359 76.8293C85.4194 66.6428 81.2763 53.403 70.0869 53.403C60.8482 53.403 56.5203 68.659 55.3054 76.8293C54.0905 68.659 49.4458 53.403 40.5239 53.403C29.3345 53.403 25.3171 66.3776 28.5414 76.8293Z" fill="white"/>
<path d="M94.2939 123.559C94.2939 140.09 76.167 145.571 54.1355 145.571C32.104 145.571 13.8437 140.09 13.8437 123.559C13.8437 95.3725 32.104 85.7086 54.1355 85.7086C76.167 85.7086 94.2939 94.0303 94.2939 123.559Z" fill="white"/>
<path d="M39.1866 118.65V123.718" stroke="#123041" stroke-width="4.751" stroke-linecap="round"/>
<path d="M77.5085 118.65V123.718" stroke="#123041" stroke-width="4.751" stroke-linecap="round"/>
<path d="M29.6824 131.002H34.4334" stroke="#FFC0C1" stroke-width="6.33467" stroke-linecap="round"/>
<path d="M82.2606 131.002H87.0116" stroke="#FFC0C1" stroke-width="6.33467" stroke-linecap="round"/>
<path d="M63.5718 131.781C63.5718 134.635 63.5718 136.07 58.3457 136.07C53.1196 136.07 53.1196 134.89 53.1196 131.781C53.1196 128.672 55.4594 123.718 58.3457 123.718C61.232 123.718 63.5718 128.927 63.5718 131.781Z" fill="#FFC0C1"/>
<path fill-rule="evenodd" clip-rule="evenodd" d="M53.8947 128.156C54.8144 125.827 56.465 123.717 58.3482 123.717C60.2058 123.717 61.8371 125.875 62.7639 128.174C61.5105 128.759 59.9889 129.102 58.3484 129.102C56.6912 129.102 55.1553 128.752 53.8947 128.156Z" fill="#E7EAEE"/>
<path d="M57.0518 119.284C57.6735 119.284 57.9584 119.543 58.347 119.802C58.7356 119.543 59.0205 119.284 59.6422 119.284C60.4193 119.284 60.8707 120.098 60.6782 120.579C60.4192 121.227 59.4695 121.875 58.347 122.134C57.2245 121.875 56.2748 121.227 56.0158 120.579C55.8233 120.098 56.2747 119.284 57.0518 119.284Z" fill="#FFC0C1"/>
<g clip-path="url(#clip3_735_2198)">
<path d="M64.1475 174.544C70.3347 172.456 74.8957 165.28 70.7314 152.937C66.5671 140.594 58.5907 137.648 52.4034 139.735C48.3329 141.109 47.3462 144.903 40.9961 147.046C34.646 149.188 29.5841 142.786 19.7334 146.109C9.88256 149.433 9.68519 162.555 13.0107 172.411C16.3361 182.268 24.4427 192.588 34.2935 189.265C44.1443 185.941 44.2928 177.781 50.6429 175.638C56.993 173.496 60.0769 175.917 64.1475 174.544Z" fill="#AC6647"/>
<circle cx="51.5842" cy="159.399" r="6.5472" transform="rotate(71.3563 51.5842 159.399)" fill="#7B5341"/>
<circle cx="51.5843" cy="159.398" r="7.68584" transform="rotate(71.3563 51.5843 159.398)" stroke="black" stroke-width="0.569322"/>
<path d="M111.191 133.58C111.701 133.407 112.265 133.538 112.625 133.937C113.405 134.801 114.72 136.394 115.19 137.788C115.66 139.182 115.58 141.246 115.482 142.405C115.438 142.942 115.068 143.387 114.558 143.559L102.254 147.71C101.861 147.843 101.429 147.797 101.071 147.585L99.9413 146.912C99.5842 146.7 99.1521 146.654 98.7584 146.787L98.4347 146.896C97.6899 147.147 96.8824 146.747 96.6311 146.002L95.448 142.496C95.1968 141.751 95.5968 140.944 96.3417 140.692L96.7651 140.55C97.1789 140.41 97.5057 140.088 97.6516 139.676L98.0359 138.592C98.1818 138.18 98.5087 137.858 98.9225 137.719L111.191 133.58Z" fill="#563628"/>
<path d="M55.8841 153.442L96.6156 140.601L98.7086 146.804L58.6141 161.533L55.8841 153.442Z" fill="#D07C57"/>
<path d="M30.2337 155.786L36.6948 174.937L32.6489 176.302C32.6489 176.302 32.2016 174.803 31.8299 173.874C30.7078 171.07 28.7881 170.127 27.8001 167.272C26.7765 164.316 27.7746 162.318 26.9159 159.309C26.6718 158.454 26.1879 157.151 26.1879 157.151L30.2337 155.786Z" fill="#563628"/>
<path d="M30.171 162.267L101.204 139.954" stroke="#968779" stroke-width="0.284661"/>
<path d="M32.8973 170.359L102.567 144.45" stroke="#968779" stroke-width="0.284661"/>
<path d="M31.2607 165.504L111.099 138.568" stroke="#968779" stroke-width="0.284661"/>
<path d="M111.464 139.647L31.8081 167.122" stroke="#968779" stroke-width="0.284661"/>
<path d="M32.3548 168.74L106.883 142.094" stroke="#968779" stroke-width="0.284661"/>
<path d="M105.97 139.397L30.7144 163.886" stroke="#968779" stroke-width="0.284661"/>
<circle cx="30.1679" cy="162.267" r="0.426991" transform="rotate(71.3563 30.1679 162.267)" fill="black"/>
<circle cx="30.7146" cy="163.885" r="0.426991" transform="rotate(71.3563 30.7146 163.885)" fill="black"/>
<circle cx="31.2613" cy="165.503" r="0.426991" transform="rotate(71.3563 31.2613 165.503)" fill="black"/>
<circle cx="31.8081" cy="167.122" r="0.426991" transform="rotate(71.3563 31.8081 167.122)" fill="black"/>
<circle cx="32.3521" cy="168.74" r="0.426991" transform="rotate(71.3563 32.3521 168.74)" fill="black"/>
<circle cx="32.8988" cy="170.358" r="0.426991" transform="rotate(71.3563 32.8988 170.358)" fill="black"/>
<circle cx="101.113" cy="140.134" r="0.426991" transform="rotate(71.3563 101.113 140.134)" fill="#B9B9B9"/>
<circle cx="105.971" cy="139.398" r="0.426991" transform="rotate(71.3563 105.971 139.398)" fill="#B9B9B9"/>
<circle cx="111.099" cy="138.567" r="0.426991" transform="rotate(71.3563 111.099 138.567)" fill="#B9B9B9"/>
<circle cx="111.464" cy="139.646" r="0.426991" transform="rotate(71.3563 111.464 139.646)" fill="#B9B9B9"/>
<circle cx="106.883" cy="142.093" r="0.426991" transform="rotate(71.3563 106.883 142.093)" fill="#B9B9B9"/>
<circle cx="102.57" cy="144.45" r="0.426991" transform="rotate(71.3563 102.57 144.45)" fill="#B9B9B9"/>
<path d="M89.2152 152.05C88.8998 154.704 85.9864 156.539 82.708 156.15C75.9308 156.491 76.4753 153.116 77.4003 151.362C78.3254 149.609 80.2901 147.549 83.7494 147.387C87.2087 147.224 89.5306 149.396 89.2152 152.05Z" fill="#E7EAEE"/>
</g>
<path d="M48.4285 161.678C44.0262 160.933 37.7477 152.978 35.2776 147.278C34.9247 146.464 34.5319 144.563 37.2506 144.074C39.1688 143.729 52.7364 148.376 55.4287 150.483C59.0267 153.298 58.5177 163.383 48.4285 161.678Z" fill="#E7EAEE"/>
</g>
<g clip-path="url(#clip4_735_2198)">
<path d="M260.845 109.737C268.703 112.034 280.089 104.508 284.8 100.459C284.986 99.7815 285.17 98.0845 284.424 96.7153C283.492 95.0038 263.902 95.6475 259.436 96.6091C254.97 97.5707 251.024 106.866 260.845 109.737Z" fill="#FFC532"/>
<path d="M276.257 146.493C273.986 145.564 271.774 133.188 272.222 127.027L294.042 130.509C294.49 135.51 294.52 145.707 293.444 146.493C292.099 147.475 279.097 147.653 276.257 146.493Z" fill="#FFC532"/>
<path d="M274.552 132.785C267.761 128.269 276.941 100.098 283.574 96.55C290.207 93.0018 300.996 93.5394 305.734 96.55C310.472 99.5606 322.18 128.161 315.389 132.785C308.598 137.408 281.343 137.3 274.552 132.785Z" fill="#FFDB40"/>
<path d="M313.363 146.493C315.635 145.564 317.847 133.188 317.398 127.027L295.578 130.509C295.13 135.51 295.1 145.707 296.176 146.493C297.521 147.475 310.523 147.653 313.363 146.493Z" fill="#FFDB40"/>
<path d="M293.204 128.609C293.139 128.609 293.074 128.597 293.014 128.573C292.954 128.548 292.899 128.512 292.853 128.466L290.653 126.253C290.572 126.159 290.529 126.038 290.534 125.915C290.539 125.791 290.591 125.673 290.679 125.586C290.767 125.498 290.885 125.447 291.009 125.442C291.134 125.437 291.255 125.479 291.35 125.56L293.555 127.748C293.601 127.794 293.638 127.849 293.663 127.909C293.688 127.968 293.701 128.033 293.701 128.098C293.701 128.163 293.688 128.227 293.663 128.287C293.638 128.347 293.601 128.401 293.555 128.447C293.51 128.496 293.456 128.536 293.396 128.564C293.336 128.591 293.27 128.607 293.204 128.609Z" fill="#FFB132"/>
<path d="M291.027 128.609C290.963 128.609 290.899 128.597 290.839 128.573C290.779 128.548 290.725 128.512 290.679 128.467C290.633 128.421 290.596 128.367 290.571 128.307C290.547 128.247 290.534 128.183 290.534 128.118C290.534 128.054 290.547 127.99 290.571 127.93C290.596 127.87 290.633 127.816 290.679 127.77L292.862 125.587C292.907 125.541 292.962 125.504 293.021 125.48C293.081 125.455 293.145 125.442 293.21 125.442C293.275 125.442 293.339 125.455 293.399 125.48C293.459 125.504 293.513 125.541 293.558 125.587C293.65 125.679 293.701 125.803 293.701 125.933C293.701 126.062 293.65 126.187 293.558 126.279L291.371 128.467C291.279 128.557 291.156 128.609 291.027 128.609Z" fill="#FFB132"/>
<path d="M254.493 79.675C254.493 96.2056 272.62 101.687 294.651 101.687C316.683 101.687 334.943 96.2056 334.943 79.675C334.943 51.4886 316.683 41.8247 294.651 41.8247C272.62 41.8247 254.493 50.1464 254.493 79.675Z" fill="#FFDB40"/>
<path d="M320.692 87.7519H315.941" stroke="#FCA18E" stroke-width="6.33467" stroke-linecap="round"/>
<path d="M268.114 87.7519H263.363" stroke="#FCA18E" stroke-width="6.33467" stroke-linecap="round"/>
<path d="M311.19 76.3486V81.4164" stroke="black" stroke-width="4.751" stroke-linecap="round"/>
<path d="M272.863 76.3486V81.4164" stroke="black" stroke-width="4.751" stroke-linecap="round"/>
<path d="M283.95 83.6335C283.95 86.5198 287.567 87.751 292.027 87.751C296.488 87.751 300.104 86.5198 300.104 83.6335C300.104 80.7472 296.488 77.2988 292.027 77.2988C287.567 77.2988 283.95 80.7472 283.95 83.6335Z" fill="#FFB132"/>
<path d="M300.655 30.8095C295.85 35.0703 293.09 39.8487 292.273 44.1978L300.729 43.2962C304.211 42.9249 307.546 38.8209 307.392 33.8395C307.238 28.8581 303.098 28.6428 300.655 30.8095Z" fill="#FFDB40"/>
<path d="M291.83 37.5398C293.326 39.0005 293.704 42.1837 293.706 43.5927C290.808 43.3249 285.946 42.434 285.074 40.5782C284.202 38.7225 284.746 36.4153 285.807 35.8654C286.869 35.3155 289.96 35.7139 291.83 37.5398Z" fill="#FFDB40"/>
<path d="M291.205 109.857C298.504 113.564 311.083 108.267 316.46 105.156C316.767 104.525 316.505 102.638 315.874 101.212C314.175 97.3751 296.808 96.5734 292.241 96.6949C287.674 96.8164 282.081 105.225 291.205 109.857Z" fill="#FFC532"/>
<g clip-path="url(#clip5_735_2198)">
<rect width="120.359" height="9.00888" rx="1.80178" transform="matrix(-1 0 0 1 344.696 103.247)" fill="#FF686B"/>
<rect width="33.513" height="7.56746" rx="1.80178" transform="matrix(-1 0 0 1 300.011 87.7518)" fill="#FF686B"/>
<rect width="1.80178" height="38.6453" rx="0.72071" transform="matrix(-0.810295 -0.586022 -0.586022 0.810295 295.327 114.392)" fill="#123041"/>
<rect x="271.182" y="114.392" width="1.80178" height="38.6453" rx="0.72071" transform="rotate(-35.8752 271.182 114.392)" fill="#123041"/>
<rect x="287.197" y="93.3226" width="1.80178" height="21.9369" rx="0.72071" transform="rotate(-16.9822 287.197 93.3226)" fill="#123041"/>
<rect width="1.80178" height="21.9369" rx="0.72071" transform="matrix(-0.956396 -0.292074 -0.292074 0.956396 279.312 93.324)" fill="#123041"/>
<ellipse cx="2.16213" cy="2.16213" rx="2.16213" ry="2.16213" transform="matrix(-1 0 0 1 296.767 112.256)" fill="#FF686B"/>
<ellipse cx="271.902" cy="114.418" rx="2.16213" ry="2.16213" fill="#FF686B"/>
<ellipse cx="2.88284" cy="2.88284" rx="2.88284" ry="2.88284" transform="matrix(-1 0 0 1 285.957 126.67)" fill="#FF686B"/>
<ellipse cx="2.16213" cy="2.16213" rx="2.16213" ry="2.16213" transform="matrix(-1 0 0 1 274.066 142.886)" fill="#FF686B"/>
<ellipse cx="294.606" cy="145.048" rx="2.16213" ry="2.16213" fill="#FF686B"/>
</g>
</g>
<g clip-path="url(#clip6_735_2198)">
<path d="M183.41 175.859C191.578 176.394 201.058 166.575 204.777 161.598C204.811 160.897 204.623 159.2 203.597 158.026C202.315 156.558 183.333 161.442 179.182 163.35C175.032 165.259 173.199 175.19 183.41 175.859Z" fill="#E7EAEE"/>
<path d="M196.701 204.153C194.429 203.225 192.217 190.849 192.666 184.688L214.485 188.17C214.934 193.17 214.964 203.368 213.888 204.153C212.542 205.136 199.54 205.314 196.701 204.153Z" fill="#E7EAEE"/>
<path d="M194.995 190.445C188.204 185.929 197.384 157.759 204.017 154.211C210.65 150.663 221.439 151.2 226.177 154.211C230.915 157.221 242.623 185.822 235.832 190.445C229.041 195.069 201.786 194.961 194.995 190.445Z" fill="white"/>
<path fill-rule="evenodd" clip-rule="evenodd" d="M213.14 193.84C213.087 192.173 213.142 188.772 214.301 186.744C216.157 183.497 222.22 181.359 222.22 181.359C224.648 180.99 229.885 179.237 231.405 175.183C232.052 173.458 233.543 172.303 235.267 171.549C237.977 179.707 239.248 188.115 235.829 190.444C232.131 192.961 222.365 194.076 213.14 193.84Z" fill="#123041"/>
<path d="M233.803 204.153C236.075 203.225 238.287 190.849 237.839 184.688L216.019 188.17C215.57 193.17 215.541 203.368 216.617 204.153C217.962 205.136 230.964 205.314 233.803 204.153Z" fill="#123041"/>
<path d="M247.4 176.836C247.54 168.651 237.276 159.656 232.126 156.181C231.423 156.181 229.738 156.452 228.614 157.533C227.21 158.884 233.003 177.608 235.11 181.662C237.217 185.716 247.224 187.067 247.4 176.836Z" fill="white"/>
<path d="M197.358 180.228C197.358 188.677 204.59 190.706 213.512 190.706C222.433 190.706 229.665 188.677 229.665 180.228C229.665 169.121 222.433 162.834 213.512 162.834C204.59 162.834 197.358 169.121 197.358 180.228Z" fill="#FFC0C1"/>
<path d="M213.647 187.855C213.582 187.855 213.518 187.843 213.457 187.818C213.397 187.794 213.342 187.758 213.296 187.712L211.096 185.499C211.015 185.405 210.973 185.284 210.977 185.16C210.982 185.037 211.034 184.919 211.122 184.832C211.21 184.744 211.328 184.693 211.452 184.688C211.577 184.683 211.698 184.725 211.793 184.806L213.998 186.994C214.044 187.04 214.081 187.094 214.106 187.154C214.131 187.214 214.144 187.278 214.144 187.343C214.144 187.408 214.131 187.473 214.106 187.532C214.081 187.592 214.044 187.647 213.998 187.693C213.954 187.742 213.9 187.781 213.839 187.809C213.779 187.837 213.714 187.853 213.647 187.855Z" fill="#FF8D8D"/>
<path d="M211.47 187.855C211.406 187.855 211.342 187.843 211.282 187.818C211.222 187.794 211.168 187.758 211.122 187.713C211.076 187.667 211.04 187.613 211.015 187.553C210.99 187.493 210.977 187.429 210.977 187.364C210.977 187.299 210.99 187.235 211.015 187.176C211.04 187.116 211.076 187.061 211.122 187.016L213.305 184.833C213.351 184.787 213.405 184.75 213.465 184.725C213.525 184.7 213.589 184.688 213.653 184.688C213.718 184.688 213.782 184.7 213.842 184.725C213.902 184.75 213.956 184.787 214.002 184.833C214.093 184.925 214.144 185.049 214.144 185.179C214.144 185.308 214.093 185.432 214.002 185.524L211.814 187.713C211.722 187.803 211.599 187.854 211.47 187.855Z" fill="#FF8D8D"/>
<path d="M250.265 105.868C240.677 111.542 243.639 114.371 246.116 118.557C248.593 122.743 249.842 126.586 259.236 121.027C264.005 118.205 265.863 112.523 263.385 108.337C260.908 104.151 255.034 103.045 250.265 105.868Z" fill="white"/>
<path d="M236.207 106.838C236.207 112.124 238.05 112.155 240.324 112.155C242.598 112.155 244.442 112.124 244.442 106.838C244.442 101.553 241.918 97.2685 240.324 97.2685C238.73 97.2685 236.207 101.553 236.207 106.838Z" fill="#6A5B3D"/>
<path d="M186.48 106.838C186.48 112.124 188.324 112.155 190.598 112.155C192.872 112.155 194.715 112.124 194.715 106.838C194.715 101.553 192.191 97.2685 190.598 97.2685C189.004 97.2685 186.48 101.553 186.48 106.838Z" fill="#6A5B3D"/>
<path d="M179.758 105.868C189.347 111.542 186.384 114.371 183.907 118.557C181.43 122.743 180.181 126.586 170.787 121.027C166.018 118.205 164.16 112.523 166.638 108.337C169.115 104.151 174.989 103.045 179.758 105.868Z" fill="#123041"/>
<path d="M177.39 110.708C182.169 113.536 180.931 114.542 179.991 116.131C179.051 117.719 178.668 119.231 173.986 116.46C171.609 115.053 170.444 112.625 171.384 111.037C172.324 109.449 175.013 109.301 177.39 110.708Z" fill="#FFC0C1"/>
<path d="M252.912 110.708C248.133 113.536 249.37 114.542 250.31 116.131C251.25 117.719 251.634 119.231 256.316 116.46C258.693 115.053 259.857 112.625 258.917 111.037C257.978 109.449 255.289 109.301 252.912 110.708Z" fill="#FFC0C1"/>
<path d="M175.393 138.603C175.393 155.133 193.52 160.615 215.552 160.615C237.583 160.615 255.844 155.133 255.844 138.603C255.844 110.416 237.583 100.752 215.552 100.752C193.52 100.752 175.393 109.074 175.393 138.603Z" fill="white"/>
<path fill-rule="evenodd" clip-rule="evenodd" d="M212.756 100.8C212.571 106.074 211.469 112.992 208.013 115.789C204.974 118.25 201.466 118.876 198.332 119.436C195.653 119.915 193.247 120.345 191.639 121.829C190.785 122.618 190.027 123.712 189.206 124.897C186.733 128.469 183.688 132.867 175.706 132.217C178.067 108.981 193.66 101.446 212.756 100.8Z" fill="#123041"/>
<path d="M234.94 135.594V140.662" stroke="#123041" stroke-width="4.751" stroke-linecap="round"/>
<path d="M192.499 135.594V140.662" stroke="#123041" stroke-width="4.751" stroke-linecap="round"/>
<path d="M228.605 147.377C228.605 140.87 223.33 135.594 216.823 135.594H210.932C204.425 135.594 199.149 140.87 199.149 147.377C199.149 151.715 202.666 155.232 207.004 155.232H220.751C225.089 155.232 228.605 151.715 228.605 147.377Z" fill="#FFC0C1"/>
<path d="M220.055 144.463V147.947" stroke="#123041" stroke-width="3.16733" stroke-linecap="round"/>
<path d="M207.386 144.463L207.386 147.947" stroke="#123041" stroke-width="3.16733" stroke-linecap="round"/>
<path d="M244.442 147.947H239.691" stroke="#FFC0C1" stroke-width="6.33467" stroke-linecap="round"/>
<path d="M187.747 147.947H182.996" stroke="#FFD2D2" stroke-width="6.33467" stroke-linecap="round"/>
<g clip-path="url(#clip7_735_2198)">
<path d="M192.411 150.401C191.178 156 188.78 157.165 184.899 156.73C181.017 156.294 178.937 154.627 178.975 148.894C179.005 144.435 182.229 141.45 186.558 141.936C190.888 142.422 193.37 146.047 192.411 150.401Z" fill="#9EE7E5"/>
<path d="M192.393 149.603L179.173 148.119" stroke="#005271" stroke-width="1.58367" stroke-linecap="round"/>
<rect width="5.7012" height="3.8008" rx="0.633467" transform="matrix(-0.993765 -0.111499 -0.111499 0.993765 185.559 177.838)" fill="#005271"/>
<path d="M189.858 156.354C189.912 155.998 189.659 155.67 189.302 155.63L181.167 154.717C180.81 154.677 180.491 154.941 180.464 155.3L178.678 179.322C178.652 179.662 178.9 179.96 179.239 179.998L185.58 180.71C185.919 180.748 186.227 180.511 186.277 180.175L189.858 156.354Z" fill="#005271"/>
</g>
</g>
<defs>
<clipPath id="clip0_735_2198">
<rect width="172.62" height="148.548" fill="white" transform="translate(73.098)"/>
</clipPath>
<clipPath id="clip1_735_2198">
<rect width="94.0698" height="116.875" fill="white" transform="translate(106.67 0.000244141)"/>
</clipPath>
<clipPath id="clip2_735_2198">
<rect width="130.494" height="144.43" fill="white" transform="translate(0 51.1855)"/>
</clipPath>
<clipPath id="clip3_735_2198">
<rect width="49.2463" height="115.857" fill="white" transform="translate(112.629 113.266) rotate(71.3563)"/>
</clipPath>
<clipPath id="clip4_735_2198">
<rect width="120.675" height="127.643" fill="white" transform="matrix(-1 0 0 1 345.011 24.4043)"/>
</clipPath>
<clipPath id="clip5_735_2198">
<rect width="139.996" height="72.2152" fill="white" transform="matrix(-1 0 0 1 353.247 75.0818)"/>
</clipPath>
<clipPath id="clip6_735_2198">
<rect width="99.771" height="118.458" fill="white" transform="matrix(-1 0 0 1 265.771 91.8848)"/>
</clipPath>
<clipPath id="clip7_735_2198">
<rect width="18.0538" height="43.3925" fill="white" transform="matrix(-0.993765 -0.111499 -0.111499 0.993765 196.09 140.775)"/>
</clipPath>
</defs>
</svg>
