<svg width="314" height="118" viewBox="0 0 314 118" fill="none" xmlns="http://www.w3.org/2000/svg">
<path fill-rule="evenodd" clip-rule="evenodd" d="M49.2467 84.5C53.2726 84.5 55.7906 79.8305 54.6455 75.9709C53.8832 73.4014 53.4789 70.7152 53.4789 67.9508C53.4789 49.4557 71.5773 34.4624 93.9027 34.4624C99.6279 34.4624 105.075 35.4484 110.01 37.2266C112.86 38.2534 116.147 36.9585 117.427 34.213C126.86 13.98 147.031 0 170.392 0C197.541 0 220.382 18.8816 227.067 44.5163C228.007 48.1231 232.308 50.0914 235.784 48.7447C239.757 47.205 244.023 46.3688 248.463 46.3688C266.884 46.3688 282.311 60.7648 286.299 80.0809C286.814 82.5755 288.926 84.5 291.473 84.5H297C306.113 84.5 313.5 91.8873 313.5 101C313.5 110.113 306.113 117.5 297 117.5L17 117.5C7.8873 117.5 0.5 110.113 0.5 101C0.5 91.8873 7.8873 84.5 17 84.5H49.2467Z" fill="white" fill-opacity="0.5"/>
</svg>
