<svg width="491" height="176" viewBox="0 0 491 176" fill="none" xmlns="http://www.w3.org/2000/svg">
<path fill-rule="evenodd" clip-rule="evenodd" d="M112 56C112 35.5655 77.9736 19 36 19C-5.97364 19 -40 35.5655 -40 56H-51C-65.9117 56 -78 68.0883 -78 83C-78 97.9117 -65.9117 110 -51 110H-27.2906C-25.1172 110 -23.6462 112.258 -24.1787 114.365C-24.715 116.488 -25 118.711 -25 121C-25 135.912 -12.9117 148 2.00001 148H20.4129C22.8115 148 24.3358 150.77 23.6813 153.078C23.2375 154.642 23 156.293 23 158C23 167.941 31.0589 176 41 176H334C343.941 176 352 167.941 352 158C352 155.787 351.601 153.667 350.87 151.709C349.964 149.279 351.534 146 354.128 146H450.5C456.851 146 462 140.851 462 134.5C462 128.149 456.851 123 450.5 123H313.5C307.149 123 302 128.149 302 134.5C302 134.728 302.007 134.955 302.02 135.18C302.152 137.453 300.621 140 298.344 140H255.377C252.712 140 251.2 136.601 252.513 134.281C254.733 130.36 256 125.828 256 121C256 106.088 243.912 94 229 94H174.291C172.117 94 170.646 91.7423 171.179 89.6352C171.715 87.5124 172 85.2895 172 83C172 68.0883 159.912 56 145 56H112Z" fill="white" fill-opacity="0.5"/>
<path fill-rule="evenodd" clip-rule="evenodd" d="M146 37C143.239 37 141.058 34.7239 140.329 32.0606C135.369 13.9614 103.534 0 65 0C26.4664 0 -5.36913 13.9614 -10.3287 32.0606C-11.0585 34.7239 -13.2386 37 -16 37H-22C-36.9117 37 -49 49.0883 -49 64C-49 78.9117 -36.9117 91 -22 91H1.70939C3.88275 91 5.35376 93.2577 4.82133 95.3648C4.28496 97.4876 4 99.7105 4 102C4 116.912 16.0883 129 31 129H49.4129C51.8115 129 53.3358 131.77 52.6813 134.078C52.2375 135.642 52 137.293 52 139C52 148.941 60.0589 157 70 157H363C372.941 157 381 148.941 381 139C381 136.787 380.601 134.667 379.87 132.709C378.964 130.279 380.534 127 383.128 127H479.5C485.851 127 491 121.851 491 115.5C491 109.149 485.851 104 479.5 104H342.5C336.149 104 331 109.149 331 115.5C331 115.728 331.007 115.955 331.02 116.18C331.152 118.453 329.621 121 327.344 121H284.377C281.712 121 280.2 117.601 281.513 115.281C283.733 111.36 285 106.828 285 102C285 87.0883 272.912 75 258 75H203.291C201.117 75 199.646 72.7423 200.179 70.6352C200.715 68.5124 201 66.2895 201 64C201 49.0883 188.912 37 174 37H146Z" fill="white" fill-opacity="0.95"/>
</svg>
