<svg width="670" height="126" viewBox="0 0 670 126" fill="none" xmlns="http://www.w3.org/2000/svg">
<path fill-rule="evenodd" clip-rule="evenodd" d="M10.0093 0C-1.35998 0 -3.91283 15.9527 6.88869 19.5006L112.752 54.2733C113.212 54.4242 113.682 54.5416 114.158 54.6246L120.036 55.6475C125.029 56.5167 124.509 63.8448 119.443 64V64L86.1069 66.1273C79.1148 66.5736 78.4269 76.5975 85.2925 77.9947L177.678 96.795C181.616 97.5963 185.624 98 189.643 98H285.33C289.137 98 292.582 100.258 294.1 103.75C295.618 107.242 299.063 109.5 302.87 109.5H411.1L568.008 125.69C585.168 127.46 600.092 113.997 600.092 96.7457V96.7457C600.092 89.5643 604.924 81 612.105 81H647.1C659.251 81 669.1 71.1502 669.1 59L669.1 44L669.1 21V21C669.1 9.40201 659.698 0 648.1 0H489.23H426.1H10.0093Z" fill="#4DB7D9"/>
</svg>
