<svg width="264" height="561" viewBox="0 0 264 561" fill="none" xmlns="http://www.w3.org/2000/svg">
<path fill-rule="evenodd" clip-rule="evenodd" d="M-83.9999 56C-100.568 56 -114 69.4315 -114 86V252C-114 256.897 -112.827 261.52 -110.746 265.603C-105.883 275.145 -98.9999 284.581 -98.9999 295.29V303C-98.9999 319.569 -85.5684 333 -68.9999 333H78.0001C94.5686 333 108 319.569 108 303C108 291.402 117.402 282 129 282H195.916C200.825 282 202.794 275.664 198.751 272.881L139.992 232.441C131.858 226.844 127 217.602 127 207.729V86C127 69.4315 113.569 56 97.0001 56H-83.9999Z" fill="#70A22B"/>
<path d="M-85 218C-85 201.431 -71.5685 188 -55 188H23.9961C40.5646 188 53.9961 201.431 53.9961 218V341.479C53.9961 356.41 64.9751 369.068 79.7555 371.178L111.733 375.744C126.513 377.855 137.492 390.513 137.492 405.443V416.255C137.492 428.09 144.451 438.819 155.257 443.646L242.087 482.435C247.013 484.635 245.443 492 240.048 492H85.1318C80.7633 492 76.4476 492.954 72.4862 494.795L-42.3544 548.177C-62.24 557.42 -85 542.901 -85 520.972V218Z" fill="#7FB732"/>
<path fill-rule="evenodd" clip-rule="evenodd" d="M49 38.5C49 32.701 53.701 28 59.5 28H118C129.046 28 138 36.9543 138 48V64.5C138 75.5457 129.046 84.5 118 84.5H93.25C87.0368 84.5 82 89.5368 82 95.75C82 101.963 76.9632 107 70.75 107H65C57.8203 107 52 112.82 52 120V128C52 130.761 49.7614 133 47 133C44.2386 133 42 130.761 42 128V120C42 112.82 36.1797 107 29 107H-15C-26.0457 107 -35 98.0457 -35 87V69C-35 57.9543 -26.0457 49 -15 49H38.5C44.299 49 49 44.299 49 38.5Z" fill="#7FB732"/>
<path fill-rule="evenodd" clip-rule="evenodd" d="M25 161C25 154.373 19.6274 149 13 149H-72C-83.0457 149 -92 157.954 -92 169V187C-92 198.046 -83.0457 207 -72 207H-33.5C-24.9396 207 -18 213.94 -18 222.5C-18 231.06 -11.0604 238 -2.5 238H50C61.0457 238 70 229.046 70 218V193C70 181.954 61.0457 173 50 173H37C30.3726 173 25 167.627 25 161Z" fill="#AFD157"/>
<path d="M70 288L62 288C44.3269 288 30 273.673 30 256L30 248L38 248C55.6731 248 70 262.327 70 280L70 288Z" fill="#AFD157"/>
<path d="M-14 18L-9 18C2.04569 18 11 26.9543 11 38L11 43L6 43C-5.0457 43 -14 34.0457 -14 23L-14 18Z" fill="#7FB732"/>
<path d="M36 18L36 23C36 34.0457 27.0457 43 16 43L11 43L11 38C11 26.9543 19.9543 18 31 18L36 18Z" fill="#7FB732"/>
<path d="M104 0L104 5C104 16.0457 95.0457 25 84 25L79 25L79 20C79 8.9543 87.9543 -7.01379e-07 99 -2.18557e-07L104 0Z" fill="#7FB732"/>
<rect x="73" y="140" width="30" height="10" rx="5" fill="#7FB732"/>
<rect x="65" y="157" width="32" height="10" rx="5" fill="#7FB732"/>
<rect x="-11" y="310" width="41" height="14" rx="7" fill="#AFD157"/>
<rect x="-16" y="285" width="32" height="14" rx="7" fill="#AFD157"/>
<circle cx="47" cy="144" r="5" fill="#7FB732"/>
<path fill-rule="evenodd" clip-rule="evenodd" d="M78.4089 14.9591C75.67 12.2203 71.2295 12.2203 68.4907 14.9591C66.3239 17.1259 65.8714 20.3579 67.1331 22.9696C67.1808 23.0683 67.0693 23.1798 66.9706 23.1321C64.3591 21.8711 61.1279 22.3238 58.9614 24.4903C56.2226 27.2291 56.2226 31.6696 58.9614 34.4085C61.1281 36.5751 64.3596 37.0277 66.9712 35.7664C67.0699 35.7187 67.1814 35.8302 67.1337 35.929C65.8712 38.5409 66.3235 41.7735 68.4907 43.9407C71.2295 46.6795 75.67 46.6795 78.4089 43.9407C80.576 41.7735 81.0284 38.5409 79.7659 35.929C79.7181 35.8302 79.8296 35.7187 79.9284 35.7664C82.54 37.0277 85.7715 36.5751 87.9382 34.4085C90.677 31.6696 90.677 27.2291 87.9382 24.4903C85.7717 22.3238 82.5404 21.8711 79.9289 23.1321C79.8302 23.1798 79.7188 23.0683 79.7664 22.9696C81.0282 20.3579 80.5757 17.1259 78.4089 14.9591Z" fill="#FFC53D"/>
<circle cx="73.4459" cy="29.5789" r="2.91457" transform="rotate(45 73.4459 29.5789)" fill="#E98B2D"/>
</svg>
