<svg width="2832" height="2832" viewBox="0 0 2832 2832" fill="none" xmlns="http://www.w3.org/2000/svg">
<g clip-path="url(#clip0_3007_125)">
<path fill-rule="evenodd" clip-rule="evenodd" d="M1400 1127.5L1355.23 1375.64L1355.23 1180.5L1182 19.5001L1480.5 109L1400 1127.5ZM1390.5 1252.5L1378.88 1348.14L2037.24 209.138L1774.24 123.639L1390.5 1252.5ZM1373.23 1357.64L1415.26 1297.8L2291.39 301.138L2429.73 443.638L2498 626.638L1373.23 1357.64ZM1458 1329L1448.5 1297.8L2651.24 833.638L2745.74 1003.64L1458 1329Z" fill="url(#paint0_linear_3007_125)" fill-opacity="0.5"/>
<path fill-rule="evenodd" clip-rule="evenodd" d="M1370.5 1321.14L902.862 130.708L664.99 237.935L1370.5 1321.14Z" fill="url(#paint1_linear_3007_125)" fill-opacity="0.5"/>
<g filter="url(#filter0_f_3007_125)">
<path fill-rule="evenodd" clip-rule="evenodd" d="M1234.64 1089.54L1289.32 1093.79L903.296 89.5128L632.289 203.798L1234.64 1089.54Z" fill="url(#paint2_linear_3007_125)" fill-opacity="0.5"/>
</g>
<g filter="url(#filter1_f_3007_125)">
<path fill-rule="evenodd" clip-rule="evenodd" d="M1348.12 970.904L1322.71 953.501L1293.29 45.9903L1496.41 125.99L1348.12 970.904ZM1420.6 1125.08L1464.6 1125.08L1951.07 367.003L1691.1 302.002L1420.6 1125.08ZM1611.07 1173.44L1545.56 1125.08L1951.07 752.514L2367.1 619.265L2261.29 773.389L1611.07 1173.44ZM1611.07 1282.5L1611.07 1262L2671.05 811.49L2671.05 1028.98L1611.07 1282.5Z" fill="url(#paint3_linear_3007_125)" fill-opacity="0.5"/>
</g>
<path fill-rule="evenodd" clip-rule="evenodd" d="M1513 1433.44L1566.5 1442L2591.5 1802.5L2368.57 2080.62L1513 1433.44ZM1474 1426.99L1425.42 1411.89L1913.58 2555.49L2229.58 2296.9L1474 1426.99ZM1359.41 1400.6L1412.15 1412L1758.44 2670.16L1631.48 2706.42L1442.33 2675.82L1359.41 1400.6ZM1359.41 1367.76L1359.41 1433.44L1190 2690L980.002 2655.5L1359.41 1367.76Z" fill="url(#paint4_linear_3007_125)" fill-opacity="0.5"/>
<path fill-rule="evenodd" clip-rule="evenodd" d="M1398.2 1320.49L1387 1376L2541.5 1592.5L2715 1302L1398.2 1320.49Z" fill="url(#paint5_linear_3007_125)" fill-opacity="0.5"/>
<g filter="url(#filter2_f_3007_125)">
<path fill-rule="evenodd" clip-rule="evenodd" d="M1727.92 1366.08L1701.04 1413.7L2755.93 1479.01L2769.03 1187.17L1727.92 1366.08Z" fill="url(#paint6_linear_3007_125)" fill-opacity="0.5"/>
<path fill-rule="evenodd" clip-rule="evenodd" d="M1695.23 1355.43L1668.35 1403.06L2609.89 1551.4L2655.59 1310.33L1695.23 1355.43Z" fill="url(#paint7_linear_3007_125)" fill-opacity="0.5"/>
</g>
<g filter="url(#filter3_f_3007_125)">
<path fill-rule="evenodd" clip-rule="evenodd" d="M1718.28 1553.2L1745.7 1539.77L2558 1889L2360.51 2094.76L1718.28 1553.2ZM1579 1582.67L1544.4 1623.58L1834.86 2434.62L2058.18 2220.4L1579 1582.67ZM1415.49 1681.18L1453.46 1582.67L1602.75 2180.81L1508.24 2605.33L1430.37 2438.52L1415.49 1681.18ZM1303 1539.77L1341.58 1556.27L1159.5 2718L986.502 2605.33L1303 1539.77Z" fill="url(#paint8_linear_3007_125)" fill-opacity="0.5"/>
</g>
<path fill-rule="evenodd" clip-rule="evenodd" d="M1217.28 1402.46L1217.28 1456.5L395.069 2218.94L292.654 1924.04L1217.28 1402.46ZM1247.18 1365.36L1365.91 1337.42L28.5902 1416.26L160.673 1701.79L1247.18 1365.36ZM1343.96 1303.09L1356.26 1325.94L9.15138 1167.33L50.9021 942.285L166.659 784.967L1343.96 1303.09ZM1354.19 1289L1281.94 1268.5L267.447 543.953L368.455 353.022L1354.19 1289Z" fill="url(#paint9_linear_3007_125)" fill-opacity="0.5"/>
<path fill-rule="evenodd" clip-rule="evenodd" d="M1341.78 1403.24L1282.36 1445.64L490.224 2334.93L807.182 2488.94L1341.78 1403.24Z" fill="url(#paint10_linear_3007_125)" fill-opacity="0.5"/>
<g filter="url(#filter4_f_3007_125)">
<path fill-rule="evenodd" clip-rule="evenodd" d="M1191.82 1649.8L1163.93 1602.58L562.794 2494.89L811.873 2651.3L1191.82 1649.8Z" fill="url(#paint11_linear_3007_125)" fill-opacity="0.5"/>
<path fill-rule="evenodd" clip-rule="evenodd" d="M1191.43 1643.44L1160.2 1602.82L453.729 2390.09L737.28 2521.92L1191.43 1643.44Z" fill="url(#paint12_linear_3007_125)" fill-opacity="0.5"/>
</g>
<g filter="url(#filter5_f_3007_125)">
<path fill-rule="evenodd" clip-rule="evenodd" d="M1049.43 1540.72L1117.37 1560.62L450.216 2164.92L406.763 1854.53L1049.43 1540.72ZM1065.8 1404.02L1066.9 1352.08L251.082 1418.75L326.559 1645.53L1065.8 1404.02ZM1074.94 1209.79L1070.34 1291.09L534.917 1184.37L197.265 880.577L384.173 884.738L1074.94 1209.79ZM1206.79 1136.62L1157.28 1161.58L191.696 520.986L373.689 401.905L1206.79 1136.62Z" fill="url(#paint13_linear_3007_125)" fill-opacity="0.5"/>
<path fill-rule="evenodd" clip-rule="evenodd" d="M1128.5 1253.5L1128.5 1291.5L460.001 1171L218.653 854.186L405.038 868.766L1128.5 1253.5Z" fill="url(#paint14_linear_3007_125)" fill-opacity="0.5"/>
</g>
</g>
<defs>
<filter id="filter0_f_3007_125" x="582.289" y="39.5128" width="757.026" height="1104.27" filterUnits="userSpaceOnUse" color-interpolation-filters="sRGB">
<feFlood flood-opacity="0" result="BackgroundImageFix"/>
<feBlend mode="normal" in="SourceGraphic" in2="BackgroundImageFix" result="shape"/>
<feGaussianBlur stdDeviation="25" result="effect1_foregroundBlur_3007_125"/>
</filter>
<filter id="filter1_f_3007_125" x="1243.29" y="-4.00964" width="1477.76" height="1336.51" filterUnits="userSpaceOnUse" color-interpolation-filters="sRGB">
<feFlood flood-opacity="0" result="BackgroundImageFix"/>
<feBlend mode="normal" in="SourceGraphic" in2="BackgroundImageFix" result="shape"/>
<feGaussianBlur stdDeviation="25" result="effect1_foregroundBlur_3007_125"/>
</filter>
<filter id="filter2_f_3007_125" x="1618.35" y="1137.17" width="1200.68" height="464.228" filterUnits="userSpaceOnUse" color-interpolation-filters="sRGB">
<feFlood flood-opacity="0" result="BackgroundImageFix"/>
<feBlend mode="normal" in="SourceGraphic" in2="BackgroundImageFix" result="shape"/>
<feGaussianBlur stdDeviation="25" result="effect1_foregroundBlur_3007_125"/>
</filter>
<filter id="filter3_f_3007_125" x="936.502" y="1489.77" width="1671.5" height="1278.23" filterUnits="userSpaceOnUse" color-interpolation-filters="sRGB">
<feFlood flood-opacity="0" result="BackgroundImageFix"/>
<feBlend mode="normal" in="SourceGraphic" in2="BackgroundImageFix" result="shape"/>
<feGaussianBlur stdDeviation="25" result="effect1_foregroundBlur_3007_125"/>
</filter>
<filter id="filter4_f_3007_125" x="403.729" y="1552.58" width="838.094" height="1148.72" filterUnits="userSpaceOnUse" color-interpolation-filters="sRGB">
<feFlood flood-opacity="0" result="BackgroundImageFix"/>
<feBlend mode="normal" in="SourceGraphic" in2="BackgroundImageFix" result="shape"/>
<feGaussianBlur stdDeviation="25" result="effect1_foregroundBlur_3007_125"/>
</filter>
<filter id="filter5_f_3007_125" x="141.696" y="351.905" width="1115.09" height="1863.01" filterUnits="userSpaceOnUse" color-interpolation-filters="sRGB">
<feFlood flood-opacity="0" result="BackgroundImageFix"/>
<feBlend mode="normal" in="SourceGraphic" in2="BackgroundImageFix" result="shape"/>
<feGaussianBlur stdDeviation="25" result="effect1_foregroundBlur_3007_125"/>
</filter>
<linearGradient id="paint0_linear_3007_125" x1="1438.33" y1="1140.54" x2="1951.44" y2="530.209" gradientUnits="userSpaceOnUse">
<stop stop-color="white" stop-opacity="0.5"/>
<stop offset="1" stop-color="#50B7D8" stop-opacity="0"/>
</linearGradient>
<linearGradient id="paint1_linear_3007_125" x1="1399.99" y1="1138.16" x2="1050.55" y2="283.821" gradientUnits="userSpaceOnUse">
<stop offset="0.234415" stop-color="white" stop-opacity="0.5"/>
<stop offset="1" stop-color="#50B7D8" stop-opacity="0"/>
</linearGradient>
<linearGradient id="paint2_linear_3007_125" x1="1413.39" y1="1267.63" x2="1039.73" y2="170.729" gradientUnits="userSpaceOnUse">
<stop offset="0.180876" stop-color="white" stop-opacity="0.5"/>
<stop offset="0.701376" stop-color="#50B7D8" stop-opacity="0"/>
</linearGradient>
<linearGradient id="paint3_linear_3007_125" x1="1431.1" y1="1269.5" x2="1832.6" y2="288.002" gradientUnits="userSpaceOnUse">
<stop stop-color="white" stop-opacity="0.5"/>
<stop offset="0.713407" stop-color="#50B7D8" stop-opacity="0"/>
</linearGradient>
<linearGradient id="paint4_linear_3007_125" x1="1535.12" y1="1509.14" x2="1810.19" y2="2245.9" gradientUnits="userSpaceOnUse">
<stop stop-color="white" stop-opacity="0.5"/>
<stop offset="1" stop-color="#50B7D8" stop-opacity="0"/>
</linearGradient>
<linearGradient id="paint5_linear_3007_125" x1="1499.62" y1="1443.13" x2="2391.79" y2="1597.78" gradientUnits="userSpaceOnUse">
<stop offset="0.234415" stop-color="white" stop-opacity="0.5"/>
<stop offset="1" stop-color="#50B7D8" stop-opacity="0"/>
</linearGradient>
<linearGradient id="paint6_linear_3007_125" x1="1494.23" y1="1454.1" x2="2624.34" y2="1584.38" gradientUnits="userSpaceOnUse">
<stop offset="0.180876" stop-color="white" stop-opacity="0.5"/>
<stop offset="0.701376" stop-color="#50B7D8" stop-opacity="0"/>
</linearGradient>
<linearGradient id="paint7_linear_3007_125" x1="1461.54" y1="1443.46" x2="2591.65" y2="1573.73" gradientUnits="userSpaceOnUse">
<stop offset="0.346631" stop-color="white" stop-opacity="0.5"/>
<stop offset="1" stop-color="#50B7D8" stop-opacity="0"/>
</linearGradient>
<linearGradient id="paint8_linear_3007_125" x1="1423.8" y1="1478.74" x2="2066.29" y2="2297.39" gradientUnits="userSpaceOnUse">
<stop stop-color="white" stop-opacity="0.5"/>
<stop offset="0.713407" stop-color="#50B7D8" stop-opacity="0"/>
</linearGradient>
<linearGradient id="paint9_linear_3007_125" x1="1176.88" y1="1390.32" x2="385.218" y2="1295.12" gradientUnits="userSpaceOnUse">
<stop stop-color="white" stop-opacity="0.5"/>
<stop offset="1" stop-color="#50B7D8" stop-opacity="0"/>
</linearGradient>
<linearGradient id="paint10_linear_3007_125" x1="1217.22" y1="1429.75" x2="713.092" y2="2225.48" gradientUnits="userSpaceOnUse">
<stop offset="0.234415" stop-color="white" stop-opacity="0.5"/>
<stop offset="1" stop-color="#50B7D8" stop-opacity="0"/>
</linearGradient>
<linearGradient id="paint11_linear_3007_125" x1="1235.15" y1="1401.23" x2="551.05" y2="2336.54" gradientUnits="userSpaceOnUse">
<stop offset="0.180876" stop-color="white" stop-opacity="0.5"/>
<stop offset="0.701376" stop-color="#50B7D8" stop-opacity="0"/>
</linearGradient>
<linearGradient id="paint12_linear_3007_125" x1="1263.33" y1="1505.45" x2="699.703" y2="2412.05" gradientUnits="userSpaceOnUse">
<stop offset="0.282206" stop-color="white" stop-opacity="0.5"/>
<stop offset="0.8402" stop-color="#50B7D8" stop-opacity="0"/>
</linearGradient>
<linearGradient id="paint13_linear_3007_125" x1="1253.86" y1="1307.79" x2="212.72" y2="1509.22" gradientUnits="userSpaceOnUse">
<stop stop-color="white" stop-opacity="0.5"/>
<stop offset="0.713407" stop-color="#50B7D8" stop-opacity="0"/>
</linearGradient>
<linearGradient id="paint14_linear_3007_125" x1="1131" y1="1322" x2="282.001" y2="1093" gradientUnits="userSpaceOnUse">
<stop offset="0.359206" stop-color="white" stop-opacity="0.5"/>
<stop offset="0.996186" stop-color="#50B7D8" stop-opacity="0"/>
</linearGradient>
<clipPath id="clip0_3007_125">
<rect width="2832" height="2832" fill="white" transform="translate(0.000488281 -0.00012207)"/>
</clipPath>
</defs>
</svg>
