<svg width="368" height="150" viewBox="0 0 368 150" fill="none" xmlns="http://www.w3.org/2000/svg">
<path fill-rule="evenodd" clip-rule="evenodd" d="M-169 75.8344C-169 77.0816 -168.232 78.2119 -167.04 78.5775C-164.023 79.5023 -160.82 80 -157.5 80H51.3203C53.7118 80 55.2326 82.7506 54.5702 85.0486C54.1017 86.6739 53.8506 88.3914 53.8506 90.1675C53.8506 100.355 62.1091 108.613 72.2965 108.613H154.529C156.442 108.613 157.857 110.387 157.772 112.298C157.757 112.629 157.75 112.962 157.75 113.297V122.177C157.75 123.834 156.407 125.177 154.75 125.177H103.542C96.8886 125.177 91.4953 130.57 91.4953 137.223C91.4953 143.876 96.8886 149.27 103.542 149.27H179.724L179.75 149.27H211.039L211.065 149.27H211.958C212.842 149.27 213.704 149.174 214.535 148.993C225.024 147.319 233.039 138.23 233.039 127.27C233.039 126.568 233.608 126 234.309 126H358.5C363.747 126 368 121.747 368 116.5C368 111.253 363.747 107 358.5 107H316.698C313.465 107 310.983 100.18 312.214 97.1911C313.107 95.0262 313.599 92.6543 313.599 90.1675C313.599 79.9801 305.34 71.7216 295.153 71.7216H219.019C216.265 71.7216 214.781 68.1097 216.336 65.8379C219.91 60.6183 222 54.3033 222 47.5C222 29.5507 207.449 15 189.5 15H112.299C110.713 15 109.412 13.762 109.22 12.1877C106.383 -11.1114 86.3831 -29.1661 62.1324 -29.1661C52.4922 -29.1661 43.5236 -26.313 36.0379 -21.4115C34.4647 -20.3813 32.3033 -20.8708 31.3586 -22.4969C21.4039 -39.6324 3.91595 -51 -15.9949 -51C-30.8923 -51 -44.4333 -44.6363 -54.4775 -34.2544C-55.5746 -33.1203 -57.345 -32.9492 -58.6549 -33.829C-65.5073 -38.4318 -73.5715 -41.0859 -82.2026 -41.0859C-92.4701 -41.0859 -101.936 -37.3299 -109.513 -31.0057C-110.739 -29.982 -112.544 -29.9878 -113.77 -31.0122C-121.282 -37.2889 -131.076 -41.0859 -141.788 -41.0859C-151.594 -41.0859 -160.631 -37.9042 -167.852 -32.5512C-168.587 -32.0066 -169 -31.1368 -169 -30.2222V75.8344Z" fill="white" fill-opacity="0.5"/>
</svg>
