<svg width="343" height="99" viewBox="0 0 343 99" fill="none" xmlns="http://www.w3.org/2000/svg">
<path fill-rule="evenodd" clip-rule="evenodd" d="M179.35 33.3245C181.289 34.085 183.625 33.0692 184.236 31.0788C189.763 13.0825 206.508 0 226.308 0C241.228 0 254.415 7.42986 262.373 18.7935C263.473 20.365 265.722 20.7027 267.281 19.5835C272.31 15.971 278.479 13.8438 285.144 13.8438C302.075 13.8438 315.8 27.5688 315.8 44.4994C315.8 47.0033 315.499 49.437 314.933 51.7666C314.43 53.8343 315.893 56 318.021 56H330.501C337.404 56 343.001 61.5964 343.001 68.5C343.001 75.4036 337.404 81 330.501 81H94.5009C87.5973 81 82.0009 75.4036 82.0009 68.5C82.0009 61.5964 87.5973 56 94.5009 56H142.805C144.429 56 145.74 54.7011 145.97 53.0932C147.704 40.9626 157.996 31.6441 170.435 31.6441C173.578 31.6441 176.585 32.2393 179.35 33.3245Z" fill="white" fill-opacity="0.95"/>
<path fill-rule="evenodd" clip-rule="evenodd" d="M117.363 42.2277C119.279 43.0441 121.61 42.0291 122.189 40.0292C128.549 18.061 148.806 2 172.813 2C190.945 2 206.938 11.1621 216.42 25.1115C217.498 26.6981 219.747 27.0364 221.283 25.8864C227.411 21.2963 235.022 18.5775 243.268 18.5775C263.543 18.5775 279.979 35.0135 279.979 55.2885C279.979 58.5939 279.543 61.7973 278.723 64.844C278.171 66.899 279.632 69.0619 281.76 69.0619H297.586C305.854 69.0619 312.556 75.7638 312.556 84.031C312.556 92.2983 305.854 99.0002 297.586 99.0002H14.9691C6.70187 99.0002 -3.05176e-05 92.2983 -3.05176e-05 84.031C-3.05176e-05 75.7638 6.70187 69.0619 14.9691 69.0619H73.3929C75.0171 69.0619 76.3305 67.7652 76.5298 66.1532C78.3601 51.3482 90.8135 39.895 105.904 39.895C109.967 39.895 113.839 40.7253 117.363 42.2277Z" fill="white" fill-opacity="0.5"/>
</svg>
