<svg width="417" height="216" viewBox="0 0 417 216" fill="none" xmlns="http://www.w3.org/2000/svg">
<path fill-rule="evenodd" clip-rule="evenodd" d="M503.157 198.198C502.612 177.801 483.433 161.411 459.853 161.411C453.64 161.411 447.732 162.549 442.391 164.598C431.892 147.613 414.393 136.49 394.58 136.49C390.547 136.49 386.61 136.951 382.809 137.828C380.923 130.932 373.892 125.809 365.505 125.809C363.705 125.809 361.968 126.045 360.331 126.484C348.135 91.8357 315.737 67.0645 277.687 67.0645C239.734 67.0645 207.404 91.7101 195.137 126.22C185.86 121.43 174.904 118.662 163.167 118.662C147.165 118.662 132.614 123.807 121.791 132.208C110.93 121.32 95.6008 114.534 78.6129 114.534C45.6781 114.534 18.9791 140.038 18.9791 171.498C18.9791 181.146 21.4903 190.234 25.9223 198.198H8.90055C3.98491 198.198 0 202.183 0 207.099C0 212.014 3.98491 215.999 8.90055 215.999H526.319C531.235 215.999 535.22 212.014 535.22 207.099C535.22 202.183 531.235 198.198 526.319 198.198H503.157Z" fill="white" fill-opacity="0.5"/>
<path fill-rule="evenodd" clip-rule="evenodd" d="M581.999 46C581.999 44.3431 580.656 43 578.999 43H458.362C457.091 43 455.964 42.196 455.501 41.0125C446.103 16.9863 423.004 0 396 0C364.473 0 338.27 23.1522 332.976 53.6292C332.574 55.9431 329.812 57.1848 327.738 56.0819C322.662 53.3817 316.765 51.8359 310.475 51.8359C291.435 51.8359 276 65.9986 276 83.4692C276 86.9133 276.6 90.2288 277.709 93.3326C278.482 95.4953 277.002 98 274.705 98H202.002C178.806 98 160.002 116.804 160.002 140C160.002 142.446 160.211 144.843 160.612 147.174C160.947 149.121 159.513 151 157.537 151H122C107.088 151 95 163.088 95 178C95 192.912 107.088 205 122 205H397C409.657 205 420.28 196.291 423.203 184.538C423.562 183.095 424.806 182 426.293 182H630.002C645.71 182 659.405 173.376 666.609 160.605C667.667 158.729 666.229 156.529 664.075 156.529H584.999C583.343 156.529 581.999 155.186 581.999 153.529V46Z" fill="white" fill-opacity="0.7"/>
</svg>
