<svg width="1096" height="293" viewBox="0 0 1096 293" fill="none" xmlns="http://www.w3.org/2000/svg">
<path d="M561.237 154.521C571.641 152.197 582.404 151.976 592.894 153.871L1074.7 240.887C1097.75 245.05 1103.81 275.278 1084.15 288.007C1079.5 291.011 1074.02 292.448 1068.5 292.105L0.646431 225.764C-47.4504 222.776 -82.0084 178.257 -72.975 130.922L-60.82 67.2296C-55.6449 40.112 -36.8538 17.5788 -11.1069 7.61658L-7.46439 6.20719C11.1678 -1.00217 31.8232 -0.97913 50.4393 6.27178L455.801 164.159C470.598 169.922 486.776 171.152 502.274 167.69L561.237 154.521Z" fill="#445747"/>
<path d="M561.237 154.521C571.641 152.197 582.404 151.976 592.894 153.871L1074.7 240.887C1097.75 245.05 1103.81 275.278 1084.15 288.007C1079.5 291.011 1074.02 292.448 1068.5 292.105L0.646431 225.764C-47.4504 222.776 -82.0084 178.257 -72.975 130.922L-60.82 67.2296C-55.6449 40.112 -36.8538 17.5788 -11.1069 7.61658L-7.46439 6.20719C11.1678 -1.00217 31.8232 -0.97913 50.4393 6.27178L455.801 164.159C470.598 169.922 486.776 171.152 502.274 167.69L561.237 154.521Z" fill="url(#paint0_radial_735_1882)"/>
<defs>
<radialGradient id="paint0_radial_735_1882" cx="0" cy="0" r="1" gradientUnits="userSpaceOnUse" gradientTransform="translate(480 -58) rotate(96.2603) scale(435.598 653.544)">
<stop offset="0.165097" stop-color="#F7B26D"/>
<stop offset="0.598257" stop-color="#475F26"/>
</radialGradient>
</defs>
</svg>
