<svg width="306" height="360" viewBox="0 0 306 360" fill="none" xmlns="http://www.w3.org/2000/svg">
<path fill-rule="evenodd" clip-rule="evenodd" d="M58.234 6.26595C58.234 2.80536 61.0394 0 64.5 0C67.6588 0 70.2717 2.33742 70.7034 5.377C70.7477 5.6887 71.0043 5.93617 71.3191 5.93617C74.5754 5.93617 77.4682 7.49257 79.2941 9.90204C81.0434 12.2103 83.3697 14.5106 86.266 14.5106C88.998 14.5106 91.2128 16.7254 91.2128 19.4574C91.2128 22.1895 88.998 24.4043 86.266 24.4043H84.961C83.7072 24.4043 82.6383 26.7781 82.6383 28.0319C82.6383 30.3997 80.7188 32.3191 78.3511 32.3191H75.0532C74.7127 32.3191 74.3814 32.2794 74.0638 32.2044V34.2979V36.5265L75.1908 35.3996C75.8347 34.7556 76.8788 34.7556 77.5227 35.3996C78.1667 36.0435 78.1667 37.0876 77.5227 37.7315L74.0638 41.1904V54.696C77.0823 55.2321 80.0499 56.2373 82.8578 57.7249L153.519 95.1576C172.499 105.212 184.368 124.932 184.368 146.41V192.538C186.203 190.374 188.941 189 192 189H196C201.523 189 206 193.477 206 199C206 200.657 207.343 202 209 202C212.314 202 215 204.686 215 208C215 211.314 212.314 214 209 214C208.991 214 208.985 214.01 208.99 214.018C209.63 215.025 210 216.219 210 217.5C210 217.859 209.971 218.212 209.915 218.555L230.489 225.442V209.483C230.179 209.548 229.878 209.622 229.59 209.705C228.927 209.897 228.225 210 227.5 210C223.358 210 220 206.642 220 202.5C220 198.874 222.573 195.849 225.993 195.151C226.553 195.037 227 194.572 227 194C227 188.477 231.477 184 237 184C240.945 184 244.357 186.285 245.984 189.604C246.871 191.413 248.485 193 250.5 193C253.538 193 256 195.462 256 198.5C256 203.217 250.217 209 245.5 209H243.606L237.229 215.377L239.402 228.425L253.999 233.311C263.934 236.637 272.168 243.727 276.931 253.059L301.305 300.816C314.888 327.43 295.556 359 265.677 359H251.897C251.463 359 251.037 359.25 250.611 359.5C250.185 359.75 249.758 360 249.324 360H-44C-60.5685 360 -74 346.568 -74 330V196.632C-74 180.015 -66.8728 164.196 -54.4259 153.187L25.5235 82.4736L22.3559 79.306C21.4157 79.751 20.3646 80 19.2553 80C15.2483 80 12 76.7517 12 72.7447V70.1064C12 67.7087 13.1631 65.5827 14.9558 64.2617C16.1978 63.3465 17 61.5428 17 60C17 56.6863 19.6863 54 23 54H39C42.3137 54 45 56.6863 45 60C45 61.0304 44.7402 62.0002 44.2827 62.8474C44.1993 63.0016 44.1665 63.1773 44.1941 63.3505C44.2524 63.716 44.559 64 44.9292 64H46.41L48.9388 61.7634C53.2321 57.966 58.3987 55.5718 63.8 54.6567L65.6449 46.2345L60.502 43.2653C59.7133 42.8099 59.4431 41.8015 59.8984 41.0128C60.3538 40.2241 61.3623 39.9539 62.1509 40.4092L66.3854 42.854L67.377 38.327L59.3559 30.306C58.4158 30.7511 57.3646 31 56.2553 31C52.2483 31 49 27.7517 49 23.7447V21.1064C49 17.0994 52.2483 13.8511 56.2553 13.8511C56.3068 13.8511 56.3582 13.8516 56.4094 13.8527C57.4784 13.8749 58.5474 13.221 58.9441 12.2281C59.1956 11.5985 59.1352 10.8946 58.8429 10.2828C58.4526 9.46577 58.234 8.55096 58.234 7.5851V6.26595ZM25.5971 77.8833L27.9984 80.2846L30.221 78.3188L29.5976 76.8259C28.28 77.0143 26.9057 77.4021 25.5971 77.8833ZM236.825 212.952L240.777 209H237.5C237.076 209 236.629 209.001 236.168 209.006L236.825 212.952ZM68.5743 32.8613L68.215 34.5012L62.5971 28.8833C63.7765 28.4496 65.0092 28.0918 66.2058 27.8875L68.5743 32.8613Z" fill="#5F8924"/>
</svg>
