<svg width="16" height="16" viewBox="0 0 16 16" fill="none" xmlns="http://www.w3.org/2000/svg">
<path d="M9.29359 1.49587C8.84923 0.295019 7.15077 0.295018 6.70641 1.49587L5.51919 4.70428C5.37949 5.08182 5.08182 5.37949 4.70428 5.51919L1.49587 6.70641C0.295019 7.15077 0.295017 8.84923 1.49587 9.29359L4.70428 10.4808C5.08182 10.6205 5.37949 10.9182 5.51919 11.2957L6.70641 14.5041C7.15077 15.705 8.84923 15.705 9.29359 14.5041L10.4808 11.2957C10.6205 10.9182 10.9182 10.6205 11.2957 10.4808L14.5041 9.29359C15.705 8.84923 15.705 7.15077 14.5041 6.70641L11.2957 5.51919C10.9182 5.37949 10.6205 5.08182 10.4808 4.70428L9.29359 1.49587Z" fill="white"/>
</svg>
