<svg width="225" height="20" viewBox="0 0 225 20" fill="none" xmlns="http://www.w3.org/2000/svg">
<path d="M216.294 3.49587C215.849 2.29502 214.151 2.29502 213.706 3.49587L212.519 6.70428C212.379 7.08182 212.082 7.37949 211.704 7.51919L208.496 8.70641C207.295 9.15077 207.295 10.8492 208.496 11.2936L211.704 12.4808C212.082 12.6205 212.379 12.9182 212.519 13.2957L213.706 16.5041C214.151 17.705 215.849 17.705 216.294 16.5041L217.481 13.2957C217.621 12.9182 217.918 12.6205 218.296 12.4808L221.504 11.2936C222.705 10.8492 222.705 9.15077 221.504 8.70641L218.296 7.51919C217.918 7.37949 217.621 7.08182 217.481 6.70428L216.294 3.49587Z" fill="white"/>
<path d="M7.90551 5.44711C7.59446 4.60651 6.40554 4.60651 6.09449 5.44711L5.26344 7.69299C5.16564 7.95727 4.95727 8.16564 4.69299 8.26344L2.44711 9.09449C1.60651 9.40554 1.60651 10.5945 2.44711 10.9055L4.69299 11.7366C4.95727 11.8344 5.16564 12.0427 5.26344 12.307L6.09449 14.5529C6.40554 15.3935 7.59446 15.3935 7.90551 14.5529L8.73656 12.307C8.83436 12.0427 9.04273 11.8344 9.30701 11.7366L11.5529 10.9055C12.3935 10.5945 12.3935 9.40554 11.5529 9.09449L9.30701 8.26344C9.04273 8.16564 8.83436 7.95727 8.73656 7.69299L7.90551 5.44711Z" fill="white"/>
</svg>
