<svg width="60" height="50" viewBox="0 0 60 50" fill="none" xmlns="http://www.w3.org/2000/svg">
<path d="M47.3757 26.069C46.7314 24.3278 44.2686 24.3278 43.6243 26.069L41.9028 30.7212C41.7003 31.2686 41.2686 31.7003 40.7212 31.9028L36.069 33.6243C34.3278 34.2686 34.3278 36.7314 36.069 37.3757L40.7212 39.0972C41.2686 39.2997 41.7003 39.7314 41.9028 40.2788L43.6243 44.931C44.2686 46.6722 46.7314 46.6722 47.3757 44.931L49.0972 40.2788C49.2997 39.7314 49.7314 39.2997 50.2788 39.0972L54.931 37.3757C56.6722 36.7314 56.6722 34.2686 54.931 33.6243L50.2788 31.9028C49.7314 31.7003 49.2997 31.2686 49.0972 30.7212L47.3757 26.069Z" fill="white"/>
<path d="M11.2936 3.49587C10.8492 2.29502 9.15077 2.29502 8.70641 3.49587L7.51919 6.70428C7.37949 7.08182 7.08182 7.37949 6.70428 7.51919L3.49587 8.70641C2.29502 9.15077 2.29502 10.8492 3.49587 11.2936L6.70428 12.4808C7.08182 12.6205 7.37949 12.9182 7.51919 13.2957L8.70641 16.5041C9.15077 17.705 10.8492 17.705 11.2936 16.5041L12.4808 13.2957C12.6205 12.9182 12.9182 12.6205 13.2957 12.4808L16.5041 11.2936C17.705 10.8492 17.705 9.15077 16.5041 8.70641L13.2957 7.51919C12.9182 7.37949 12.6205 7.08182 12.4808 6.70428L11.2936 3.49587Z" fill="white"/>
</svg>
